<svg xmlns="http://www.w3.org/2000/svg" xmlns:xlink="http://www.w3.org/1999/xlink" version="1.1" id="레이어_1" x="0px" y="0px" viewBox="0 0 754 188" style="enable-background:new 0 0 754 188;" xml:space="preserve"><title>7. https://confio.gmbh/wp-content/uploads//2021/04/Confio_Logo_whtie_2021.svg</title>
<style type="text/css">
	.st0{fill:url(#SVGID_1_);}
	.st1{fill:url(#SVGID_2_);}
	.st2{fill:url(#SVGID_3_);}
	.st3{fill:url(#SVGID_4_);}
	.st4{fill:url(#SVGID_5_);}
	.st5{fill:url(#SVGID_6_);}
	.st6{fill:url(#SVGID_7_);}
	.st7{fill:url(#SVGID_8_);}
	.st8{fill:url(#SVGID_9_);}
	.st9{fill:url(#SVGID_10_);}
	.st10{fill:url(#SVGID_11_);}
	.st11{fill:url(#SVGID_12_);}
	.st12{fill:#FFFFFF;}
</style>
<linearGradient id="SVGID_1_" gradientUnits="userSpaceOnUse" x1="164.8975" y1="951.9124" x2="5.3762" y2="1077.9069" gradientTransform="matrix(1 0 0 1 0 -890)">
	<stop offset="0" style="stop-color:#00FFF0"/>
	<stop offset="1" style="stop-color:#7000FF"/>
</linearGradient>
<path class="st0" d="M120.9,112.3c-5.4,5.4-13-11.4-15.4-17.2c-0.3-0.8-0.1-1.8,0.6-2.4l0.1-0.1c0.9-0.8,2.3-0.7,3.1,0.2  c2.6,3.1,7.4,8.5,11.9,11.6c2,1.4,3.1,4.5,1.3,6.2C122.2,111,121.6,111.6,120.9,112.3z"/>
<linearGradient id="SVGID_2_" gradientUnits="userSpaceOnUse" x1="164.3441" y1="951.2118" x2="4.8228" y2="1077.2062" gradientTransform="matrix(1 0 0 1 0 -890)">
	<stop offset="0" style="stop-color:#00FFF0"/>
	<stop offset="1" style="stop-color:#7000FF"/>
</linearGradient>
<path class="st1" d="M136.8,97.8l-1.5,3.2c-4,8.4-18.7-6-24-11.7c-0.6-0.7-0.7-1.7-0.2-2.5c0.3-0.5,0.5-0.9,0.8-1.4  c0.6-1.2,2-1.7,3.1-1c4.3,2.6,12,6.8,18.9,8.2C136.1,93,137.8,95.6,136.8,97.8z"/>
<linearGradient id="SVGID_3_" gradientUnits="userSpaceOnUse" x1="158.4634" y1="943.7662" x2="-1.0579" y2="1069.7606" gradientTransform="matrix(1 0 0 1 0 -890)">
	<stop offset="0" style="stop-color:#00FFF0"/>
	<stop offset="1" style="stop-color:#7000FF"/>
</linearGradient>
<path class="st2" d="M145.5,78.7l-0.4,4.1c-0.9,10.6-22,0.7-30-3.5c-0.7-0.4-1.1-1.2-1.1-2c0-0.6,0.1-1.2,0.1-1.8  c0-1.8-0.2-3.5-0.6-5.2c-0.3-1.2,0.5-2.5,1.7-2.7h0.1c6.5-0.8,19.4-2.5,26.9-6.7c2.2-1.2,5.8-0.3,6.5,2.2l1.1,3.9  c1.3,4.7-2.2,7-7.6,8C144,75.2,145.7,76.8,145.5,78.7z"/>
<linearGradient id="SVGID_4_" gradientUnits="userSpaceOnUse" x1="147.2539" y1="929.5741" x2="-12.2957" y2="1055.5908" gradientTransform="matrix(1 0 0 1 0 -890)">
	<stop offset="0" style="stop-color:#00FFF0"/>
	<stop offset="1" style="stop-color:#7000FF"/>
</linearGradient>
<path class="st3" d="M142.2,37.9l4,5.7c8,11.5-23.9,18.7-33.6,20.6c-0.8,0.2-1.7-0.2-2.1-1c-0.4-0.6-0.7-1.1-1.2-1.6  c-0.9-1.1-0.6-2.8,0.7-3.4c6.4-3.1,20.3-10.5,26.9-18.7C138.5,37.7,140.8,35.9,142.2,37.9z"/>
<linearGradient id="SVGID_5_" gradientUnits="userSpaceOnUse" x1="122.6512" y1="898.4246" x2="-36.8701" y2="1024.4191" gradientTransform="matrix(1 0 0 1 0 -890)">
	<stop offset="0" style="stop-color:#00FFF0"/>
	<stop offset="1" style="stop-color:#7000FF"/>
</linearGradient>
<path class="st4" d="M126.9,19.7l4.8,3.3c12.8,8.9-17.6,28.2-26.2,33.3c-0.7,0.4-1.5,0.3-2.1-0.1c-3.4-2.1-7.4-3.3-11.7-3.3  c-1,0-1.9-0.8-1.9-1.8c-0.2-9.6-1.1-32.2-5.5-43.7c-1-2.6,0.8-6.7,3.5-6.9L93.5,0c7.2-0.7,9.5,5.3,9.4,13.6c0.1-2.9,4.1-6.9,6.9-6.2  l3.6,0.9c8.1,2,9.8,6.9,8.1,12.9C122.6,19.4,125.1,18.5,126.9,19.7z"/>
<linearGradient id="SVGID_6_" gradientUnits="userSpaceOnUse" x1="112.6765" y1="885.7955" x2="-46.8448" y2="1011.79" gradientTransform="matrix(1 0 0 1 0 -890)">
	<stop offset="0" style="stop-color:#00FFF0"/>
	<stop offset="1" style="stop-color:#7000FF"/>
</linearGradient>
<path class="st5" d="M63.6,1l-7.1,3.3c-2.3,1.1-2.5,4.5-0.8,6.2c10.5,10.7,19.1,34.7,22.2,44c0.4,1.3,2,1.8,3.2,1.2  c0.8-0.4,1.6-0.8,2.5-1.1c0.8-0.3,1.4-1.1,1.4-2C84.5,40,81.6-7.4,63.6,1z"/>
<linearGradient id="SVGID_7_" gradientUnits="userSpaceOnUse" x1="111.2747" y1="884.0209" x2="-48.2466" y2="1010.0153" gradientTransform="matrix(1 0 0 1 0 -890)">
	<stop offset="0" style="stop-color:#00FFF0"/>
	<stop offset="1" style="stop-color:#7000FF"/>
</linearGradient>
<path class="st6" d="M35.4,14l-5.1,5.2c-1.9,1.9-0.1,6.2,2.3,7.4c-7.3-3.4-13.5-2.8-16.8,4.1l-3.3,7c-1.2,2.5,1.5,6,4.2,6.3  C32.4,45.7,59,60.8,68.6,66.5c1.1,0.6,2.4,0.1,3-1c0.8-1.5,1.7-3,2.8-4.3c0.5-0.6,0.6-1.4,0.4-2.1C69.9,46.4,50.4-1.2,35.4,14z"/>
<linearGradient id="SVGID_8_" gradientUnits="userSpaceOnUse" x1="117.6138" y1="892.0468" x2="-41.9075" y2="1018.0411" gradientTransform="matrix(1 0 0 1 0 -890)">
	<stop offset="0" style="stop-color:#00FFF0"/>
	<stop offset="1" style="stop-color:#7000FF"/>
</linearGradient>
<path class="st7" d="M0.7,61.2C-0.6,75,0.3,69.4,0.2,72.8c-0.1,2.7,3.2,4.8,5.7,4C22.4,71.9,55.2,77,66.8,79c1.4,0.2,2.6-1,2.5-2.4  c0-0.4,0-0.7,0-1.1c0-0.6,0-1.1,0.1-1.6c0.1-0.8-0.3-1.6-1-2C55.8,64.9,2.9,36.8,0.7,61.2z"/>
<linearGradient id="SVGID_9_" gradientUnits="userSpaceOnUse" x1="139.8821" y1="920.2405" x2="-19.6392" y2="1046.235" gradientTransform="matrix(1 0 0 1 0 -890)">
	<stop offset="0" style="stop-color:#00FFF0"/>
	<stop offset="1" style="stop-color:#7000FF"/>
</linearGradient>
<path class="st8" d="M0.9,98.7l2.8,10.4c0.7,2.4,4.4,5.6,6.3,4c-4.9,4.7-6.7,9.9-2.5,15.9l6.5,9.3c1.5,2.1,4.8,1.5,6-0.7  c-2.6,6.1-2.2,12,2.9,17.1c0.1,0.1,0.1,0.1,0.2,0.2l9.9,7c2,1.4,5,0,5.3-2.5c3.8-24.5,29.7-54.1,38.8-63.8c0.8-0.9,0.7-2.3-0.2-3.1  c-2.2-1.9-4.1-4.3-5.4-7c-0.3-0.6-0.8-1.1-1.5-1.2C53.8,81.7-5.9,74,0.9,98.7z"/>
<linearGradient id="SVGID_10_" gradientUnits="userSpaceOnUse" x1="168.666" y1="956.6838" x2="9.1447" y2="1082.6782" gradientTransform="matrix(1 0 0 1 0 -890)">
	<stop offset="0" style="stop-color:#00FFF0"/>
	<stop offset="1" style="stop-color:#7000FF"/>
</linearGradient>
<path class="st9" d="M72.2,177.7c-5.1-25.4,14-72.5,16.8-79.2c0.2-0.6,0-1.1-0.6-1.1c-1.3-0.1-2.6-0.3-3.8-0.6  c-0.8-0.2-1.7,0-2.3,0.6c-9.6,11.6-58.8,73-28.6,80.9c15.6,4.1,6.4,1.9,14.2,4C70.3,182.9,72.7,180.2,72.2,177.7z"/>
<linearGradient id="SVGID_11_" gradientUnits="userSpaceOnUse" x1="184.6078" y1="976.8676" x2="25.0865" y2="1102.8619" gradientTransform="matrix(1 0 0 1 0 -890)">
	<stop offset="0" style="stop-color:#00FFF0"/>
	<stop offset="1" style="stop-color:#7000FF"/>
</linearGradient>
<path class="st10" d="M109.4,186l-12.9,1.3c-31.5,3.3-9-70.4-3.1-88.3c0.2-0.7,0.9-1.2,1.7-1.4c1.4-0.2,2.8-0.6,4.1-1  c1.2-0.4,2.5,0.2,2.9,1.4c3.4,12.2,14.7,45.6,41.7,73.8c1.9,2,1,7.5-1.5,8.7c-2.7,1.2-6.4,3-11.6,5.4c-7.6,3.5-13.4,0.7-17.9-5.9  C114.1,182.3,112.1,185.7,109.4,186z"/>
<linearGradient id="SVGID_12_" gradientUnits="userSpaceOnUse" x1="121.11" y1="-754.8487" x2="98.5483" y2="-726.6471" gradientTransform="matrix(6.123234e-17 1 -1 6.123234e-17 -648.835 -34.1588)">
	<stop offset="0" style="stop-color:#FCECB2"/>
	<stop offset="0.5076" style="stop-color:#FF8B89"/>
	<stop offset="1" style="stop-color:#FC8ADC"/>
</linearGradient>
<circle class="st11" cx="91.7" cy="75.5" r="15.8"/>
<path class="st12" d="M250.5,55.7h2.9l0.9,23.2h-3.7c-1.5-5.9-4.3-10.6-8.6-14c-4.2-3.3-9.4-5-15.4-5c-4.1,0-7.8,0.8-11,2.5  c-3.2,1.6-6,3.9-8.2,7c-2.3,3.1-3.9,6.8-5.1,11.1c-1.2,4.4-1.7,9.4-1.7,14.9c0,10.8,2.3,19.2,6.8,25.1c4.5,5.8,11,8.7,19.6,8.7  c13,0,21.4-6.9,25.1-20.8h4.1v25.2h-3.5l-2.4-8c-7.1,6-15.7,9-25.7,9c-5.7,0-10.9-0.9-15.6-2.8c-4.6-1.8-8.6-4.4-11.8-7.7  c-3.2-3.3-5.8-7.5-7.6-12.2c-1.8-4.8-2.7-10.1-2.7-15.9c0-6.1,1-11.7,2.9-16.8c1.9-5,4.5-9.4,7.9-13.1c3.4-3.6,7.5-6.4,12.2-8.4  c4.8-2.1,10-3.1,15.7-3.1c4,0,7.9,0.6,11.4,1.7s7.5,3,11.6,5.6L250.5,55.7z"/>
<path class="st12" d="M331,54.7c5.9,0,11.4,1.1,16.6,3.1c5.1,2.1,9.5,4.9,13.4,8.6c3.7,3.6,6.8,8,8.9,12.9  c2.2,4.9,3.2,10.2,3.2,15.9c0,5.4-1.1,10.6-3.3,15.4c-2.2,4.8-5.1,9-8.9,12.5c-3.7,3.5-8.3,6.3-13.4,8.4c-5.1,2.1-10.6,3.1-16.5,3.1  c-5.9,0-11.3-1-16.5-3.1c-5.1-2.1-9.5-4.9-13.4-8.4c-3.7-3.5-6.8-7.8-9-12.5c-2.2-4.8-3.2-9.9-3.2-15.4c0-5.7,1.1-11,3.2-15.9  c2.2-4.9,5.1-9.3,8.9-12.9c3.7-3.6,8.3-6.5,13.4-8.6C319.6,55.8,325.1,54.7,331,54.7z M331,129c4.4,0,8.5-0.8,11.9-2.4  c3.5-1.6,6.6-3.7,9.1-6.7c2.6-2.9,4.5-6.4,5.9-10.5c1.4-4.1,2.1-8.9,2.1-14c0-5.4-0.7-10.2-2.1-14.6c-1.4-4.4-3.2-8.1-5.8-11.1  c-2.5-3.1-5.5-5.4-9.1-7.1c-3.5-1.7-7.6-2.6-12-2.6c-4.4,0-8.5,0.9-12,2.6c-3.5,1.6-6.6,3.9-9.1,7.1c-2.5,3.1-4.4,6.8-5.8,11.1  c-1.4,4.3-2.1,9.2-2.1,14.6c0,5.1,0.7,9.7,2.1,14c1.4,4.1,3.2,7.6,5.8,10.5c2.5,2.9,5.5,5.1,9.1,6.7C322.5,128.3,326.6,129,331,129z  "/>
<path class="st12" d="M469.1,134.1l-48-63.3h-0.4V114c0,3.3,0.1,6,0.3,8c0.3,2,0.8,3.4,1.4,4.5c0.8,1.1,1.8,1.8,3.1,2.2  c1.4,0.3,3.1,0.5,5.2,0.6v3.8h-27.2v-3.8c2.4-0.1,4.2-0.3,5.7-0.6c1.5-0.4,2.7-1.1,3.4-2.2c0.8-1,1.4-2.5,1.6-4.2  c0.3-1.9,0.4-4.4,0.4-7.6V73.6c0-2.9-0.1-5.1-0.4-7c-0.2-1.9-0.7-3.3-1.4-4.4c-0.7-1.1-1.7-1.8-3.1-2.3c-1.4-0.5-3.1-0.8-5.2-0.9  v-3.8h20l44.2,59h0.4V74.3c0-3.3-0.1-5.9-0.4-7.9c-0.2-2.1-0.7-3.5-1.4-4.6c-0.7-1.1-1.7-1.8-3.1-2.2c-1.3-0.3-3-0.5-5.1-0.6v-3.8  h27.1V59c-2.4,0.1-4.3,0.3-5.8,0.7c-1.4,0.3-2.6,1-3.3,2.1c-0.8,1-1.4,2.5-1.6,4.3c-0.3,1.9-0.4,4.4-0.4,7.5v60.5H469.1z"/>
<path class="st12" d="M537.7,117.5c0,2.6,0.1,4.6,0.4,6.3c0.3,1.6,1,2.8,2.1,3.6c1,0.8,2.5,1.4,4.2,1.7c1.9,0.3,4.3,0.5,7.4,0.6v3.8  H516v-3.8c2.4-0.1,4.2-0.3,5.7-0.6c1.5-0.3,2.7-0.9,3.4-1.7c0.8-0.8,1.4-2,1.6-3.4c0.3-1.5,0.4-3.4,0.4-5.8V71.1  c0-2.4-0.1-4.2-0.4-5.7c-0.2-1.5-0.7-2.7-1.4-3.4c-0.7-0.9-1.7-1.5-3.1-1.7c-1.4-0.3-3.1-0.6-5.2-0.7v-3.8h58.5l1.1,19.3h-3.5  c-0.4-2.9-1.1-5.2-2-7.1s-2.2-3.3-3.7-4.4s-3.5-1.8-6-2.3c-2.5-0.5-5.4-0.7-9.1-0.7h-12.9c-1.2,0-1.7,0.6-1.7,1.7v30.5  c3.2,0,6-0.2,8.3-0.5c2.4-0.4,4.3-1.1,5.8-2.1c1.6-1,2.8-2.3,3.5-3.8c0.8-1.6,1.3-3.7,1.5-6.3h3.5v29.6h-3.5  c-0.3-2.6-0.9-4.7-1.6-6.4c-0.8-1.7-1.9-3-3.3-3.9c-1.4-1-3.2-1.6-5.6-2.1c-2.4-0.5-5.1-0.6-8.6-0.6V117.5z"/>
<path class="st12" d="M626.7,114.4c0,3.3,0.1,6,0.4,8c0.3,2,0.8,3.4,1.5,4.5c0.8,1.1,2,1.8,3.3,2.2c1.5,0.3,3.4,0.5,5.8,0.6v3.8  h-32.8v-3.8c2.4-0.1,4.2-0.3,5.7-0.6c1.5-0.4,2.7-1.1,3.4-2.2c0.8-1,1.4-2.5,1.6-4.2c0.3-1.9,0.4-4.4,0.4-7.6v-41  c0-2.9-0.1-5.1-0.4-7c-0.2-1.9-0.7-3.3-1.4-4.4c-0.7-1.1-1.7-1.8-3.1-2.3c-1.4-0.5-3.1-0.8-5.2-0.9v-3.8h30.7v3.8  c-2.2,0.1-3.9,0.3-5.2,0.8c-1.3,0.5-2.3,1.3-3.1,2.5c-0.7,1.1-1.2,2.6-1.4,4.5c-0.2,2-0.3,4.4-0.3,7.5L626.7,114.4L626.7,114.4z"/>
<path class="st12" d="M710.1,54.7c5.9,0,11.4,1.1,16.6,3.1c5.1,2.1,9.5,4.9,13.4,8.6c3.7,3.6,6.8,8,8.9,12.9  c2.1,4.9,3.2,10.2,3.2,15.9c0,5.4-1.1,10.6-3.3,15.4c-2.2,4.8-5.1,9-8.9,12.5c-3.7,3.5-8.3,6.3-13.4,8.4c-5.1,2.1-10.6,3.1-16.5,3.1  s-11.3-1-16.5-3.1c-5.1-2.1-9.5-4.9-13.4-8.4c-3.7-3.5-6.8-7.8-9-12.5c-2.2-4.8-3.2-9.9-3.2-15.4c0-5.7,1.1-11,3.2-15.9  c2.2-4.9,5.1-9.3,8.9-12.9s8.3-6.5,13.4-8.6C698.7,55.8,704.2,54.7,710.1,54.7z M710.1,129c4.4,0,8.5-0.8,11.9-2.4  c3.5-1.6,6.6-3.7,9.1-6.7c2.6-2.9,4.5-6.4,5.9-10.5c1.4-4.1,2.1-8.9,2.1-14c0-5.4-0.7-10.2-2.1-14.6c-1.4-4.4-3.2-8.1-5.8-11.1  c-2.5-3.1-5.5-5.4-9.1-7.1c-3.5-1.7-7.6-2.6-12-2.6c-4.4,0-8.5,0.9-12,2.6c-3.5,1.6-6.6,3.9-9.1,7.1c-2.5,3.1-4.4,6.8-5.8,11.1  c-1.4,4.3-2.1,9.2-2.1,14.6c0,5.1,0.7,9.7,2.1,14c1.4,4.1,3.2,7.6,5.8,10.5c2.5,2.9,5.5,5.1,9.1,6.7  C701.6,128.3,705.6,129,710.1,129z"/>
</svg>